<svg xmlns="http://www.w3.org/2000/svg" width="31.674" height="25.518" viewBox="0 0 31.674 25.518">
  <path id="twitter-icon" d="M26.918,54.152c.019.267.019.533.019.8,0,8.129-6.187,17.495-17.495,17.495A17.376,17.376,0,0,1,0,69.686a12.721,12.721,0,0,0,1.485.076,12.314,12.314,0,0,0,7.634-2.627,6.16,6.16,0,0,1-5.749-4.264,7.754,7.754,0,0,0,1.161.1,6.5,6.5,0,0,0,1.618-.209,6.15,6.15,0,0,1-4.93-6.035v-.076A6.192,6.192,0,0,0,4,57.426a6.158,6.158,0,0,1-1.9-8.224,17.478,17.478,0,0,0,12.678,6.434,6.941,6.941,0,0,1-.152-1.409,6.155,6.155,0,0,1,10.641-4.207,12.106,12.106,0,0,0,3.9-1.485,6.132,6.132,0,0,1-2.7,3.389A12.327,12.327,0,0,0,30,50.973a13.218,13.218,0,0,1-3.084,3.179Z" transform="translate(0.27 -47.429)" fill="none" stroke="#fff" stroke-width="1"/>
</svg>
