<svg id="Logo" xmlns="http://www.w3.org/2000/svg" width="50" height="50" viewBox="0 0 50 50">
  <rect id="長方形_58" data-name="長方形 58" width="50" height="50" fill="rgba(255,255,255,0.79)"/>
  <g id="グループ_116" data-name="グループ 116" transform="translate(4.944 5)">
    <path id="パス_20" data-name="パス 20" d="M1.4,0H2.7V-4.074H4.4c2.254,0,3.78-1.008,3.78-3.178,0-2.24-1.54-3.024-3.836-3.024H1.4ZM2.7-5.124V-9.212h1.47c1.806,0,2.716.476,2.716,1.96s-.854,2.128-2.66,2.128Z" transform="translate(-1.4 10.276)" fill="#959595"/>
    <path id="パス_23" data-name="パス 23" d="M5.194.182c2.576,0,4.382-2.058,4.382-5.348S7.77-10.458,5.194-10.458.812-8.456.812-5.166,2.618.182,5.194.182Zm0-1.134C3.346-.952,2.142-2.6,2.142-5.166s1.2-4.158,3.052-4.158S8.246-7.742,8.246-5.166,7.028-.952,5.194-.952Z" transform="translate(14.189 10.458)" fill="#959595"/>
    <path id="パス_24" data-name="パス 24" d="M1.4,0H2.7V-4.354H4.55L7.042,0h1.47L5.88-4.494A2.783,2.783,0,0,0,8.2-7.378c0-2.142-1.5-2.9-3.584-2.9H1.4ZM2.7-5.4V-9.212H4.424c1.61,0,2.492.476,2.492,1.834,0,1.33-.882,1.974-2.492,1.974Z" transform="translate(31.6 10.276)" fill="#959595"/>
  </g>
  <g id="グループ_118" data-name="グループ 118" transform="translate(5 34.773)">
    <path id="パス_28" data-name="パス 28" d="M2.475-1.073H7.191V0H1.155V-9.953H2.475Z" transform="translate(-1.155 10.18)" fill="#959595"/>
    <path id="パス_29" data-name="パス 29" d="M2.563,0H1.251V-9.953H2.563Z" transform="translate(17.437 10.227)" fill="#959595"/>
    <path id="パス_30" data-name="パス 30" d="M8.812-4.655A6.157,6.157,0,0,1,8.319-2.1,3.728,3.728,0,0,1,6.925-.437,3.837,3.837,0,0,1,4.819.137,3.8,3.8,0,0,1,2.734-.441,3.817,3.817,0,0,1,1.323-2.088,5.908,5.908,0,0,1,.807-4.566v-.718a6.084,6.084,0,0,1,.5-2.536A3.8,3.8,0,0,1,2.717-9.505a3.788,3.788,0,0,1,2.088-.584,3.858,3.858,0,0,1,2.109.578,3.721,3.721,0,0,1,1.4,1.675,6.187,6.187,0,0,1,.492,2.553ZM7.506-5.3a4.463,4.463,0,0,0-.711-2.717,2.345,2.345,0,0,0-1.989-.947,2.32,2.32,0,0,0-1.958.947,4.371,4.371,0,0,0-.735,2.628v.731a4.469,4.469,0,0,0,.721,2.7,2.329,2.329,0,0,0,1.986.981A2.32,2.32,0,0,0,6.788-1.9,4.444,4.444,0,0,0,7.506-4.56Z" transform="translate(31.188 10.09)" fill="#959595"/>
  </g>
  <g id="グループ_117" data-name="グループ 117" transform="translate(5 21)">
    <path id="パス_25" data-name="パス 25" d="M8.032-8.873h-3.2V0H3.527V-8.873H.335v-1.08h7.7Z" transform="translate(-0.335 9.953)" fill="#959595"/>
    <path id="パス_26" data-name="パス 26" d="M6.645-4.4H2.468V0H1.155V-9.953H7.321v1.08H2.468v3.4H6.645Z" transform="translate(15.845 9.953)" fill="#959595"/>
    <path id="パス_27" data-name="パス 27" d="M8.812-4.655A6.157,6.157,0,0,1,8.319-2.1,3.728,3.728,0,0,1,6.925-.437,3.837,3.837,0,0,1,4.819.137,3.8,3.8,0,0,1,2.734-.441,3.817,3.817,0,0,1,1.323-2.088,5.908,5.908,0,0,1,.807-4.566v-.718a6.084,6.084,0,0,1,.5-2.536A3.8,3.8,0,0,1,2.717-9.505a3.788,3.788,0,0,1,2.088-.584,3.858,3.858,0,0,1,2.109.578,3.721,3.721,0,0,1,1.4,1.675,6.187,6.187,0,0,1,.492,2.553ZM7.506-5.3a4.463,4.463,0,0,0-.711-2.717,2.345,2.345,0,0,0-1.989-.947,2.32,2.32,0,0,0-1.958.947,4.371,4.371,0,0,0-.735,2.628v.731a4.469,4.469,0,0,0,.721,2.7,2.329,2.329,0,0,0,1.986.981A2.32,2.32,0,0,0,6.788-1.9,4.444,4.444,0,0,0,7.506-4.56Z" transform="translate(31.193 10.09)" fill="#959595"/>
  </g>
</svg>
