<svg xmlns="http://www.w3.org/2000/svg" xmlns:xlink="http://www.w3.org/1999/xlink" width="64" height="72" viewBox="0 0 64 72">
  <defs>
    <clipPath id="clip-path">
      <rect id="長方形_88" data-name="長方形 88" width="64" height="72" transform="translate(0 -0.402)" fill="#fff" stroke="#707070" stroke-width="1"/>
    </clipPath>
  </defs>
  <g id="マスクグループ_12" data-name="マスクグループ 12" transform="translate(0 0.402)" clip-path="url(#clip-path)">
    <g id="git-icon" transform="translate(-0.109 4.001)">
      <path id="パス_93" data-name="パス 93" d="M67.355,33.717,39.416,5.777a4.114,4.114,0,0,0-5.828,0l-5.8,5.8,7.359,7.359a4.893,4.893,0,0,1,6.2,6.239l7.085,7.085a4.9,4.9,0,1,1-2.937,2.765l-6.616-6.616V45.82a4.893,4.893,0,1,1-4.031-.142V28.11a4.9,4.9,0,0,1-2.662-6.431L24.936,14.43,5.777,33.6a4.114,4.114,0,0,0,0,5.83l27.939,27.93a4.114,4.114,0,0,0,5.828,0L67.355,39.537a4.114,4.114,0,0,0,0-5.83" transform="translate(-4.566 -4.568)" fill="#dd4c35"/>
      <path id="パス_94" data-name="パス 94" d="M27.786,11.58l7.359,7.359a4.893,4.893,0,0,1,6.2,6.239l7.085,7.085a4.9,4.9,0,1,1-2.937,2.765l-6.616-6.616V45.82a4.893,4.893,0,1,1-4.031-.142V28.11a4.9,4.9,0,0,1-2.662-6.431L24.936,14.43" transform="translate(-4.566 -4.568)" fill="#fff"/>
    </g>
  </g>
</svg>
