<svg xmlns="http://www.w3.org/2000/svg" xmlns:xlink="http://www.w3.org/1999/xlink" width="64" height="72" viewBox="0 0 64 72">
  <defs>
    <clipPath id="clip-path">
      <rect id="長方形_88" data-name="長方形 88" width="64" height="72" transform="translate(0 0.171)" fill="#fff" stroke="#707070" stroke-width="1"/>
    </clipPath>
  </defs>
  <g id="マスクグループ_2" data-name="マスクグループ 2" transform="translate(0 -0.171)" clip-path="url(#clip-path)">
    <g id="html-icon" transform="translate(0.256 0)">
      <path id="パス_69" data-name="パス 69" d="M15.177,69.945,9.4,5.143H72.887L67.1,69.935l-26,7.208Z" transform="translate(-9.399 -5.143)" fill="#e44f26"/>
      <path id="パス_70" data-name="パス 70" d="M41.143,71.635l21.009-5.824,4.942-55.368H41.143Z" transform="translate(-9.399 -5.143)" fill="#f1662a"/>
      <path id="パス_71" data-name="パス 71" d="M41.143,34.475H30.626L29.9,26.337H41.143V18.388H21.214l.19,2.134,1.952,21.9H41.143Z" transform="translate(-9.399 -5.143)" fill="#ebebeb"/>
      <path id="パス_72" data-name="パス 72" d="M41.143,55.116l-.036.01-8.851-2.389L31.69,46.4H23.711l1.113,12.477L41.107,63.4l.036-.01Z" transform="translate(-9.399 -5.143)" fill="#ebebeb"/>
      <path id="パス_73" data-name="パス 73" d="M41.115,34.475v7.948H50.9l-.921,10.309-8.866,2.391v8.27l16.3-4.518.118-1.342,1.867-20.924.2-2.134H41.115Z" transform="translate(-9.399 -5.143)" fill="#fff"/>
      <path id="パス_74" data-name="パス 74" d="M41.115,18.388v7.948h19.2l.159-1.785.363-4.029.19-2.134Z" transform="translate(-9.399 -5.143)" fill="#fff"/>
    </g>
  </g>
</svg>
