<svg xmlns="http://www.w3.org/2000/svg" xmlns:xlink="http://www.w3.org/1999/xlink" width="64" height="72" viewBox="0 0 64 72">
  <defs>
    <clipPath id="clip-path">
      <rect id="長方形_114" data-name="長方形 114" width="64" height="72" transform="translate(0 -0.402)" fill="#fff" stroke="#707070" stroke-width="1"/>
    </clipPath>
  </defs>
  <g id="マスクグループ_28" data-name="マスクグループ 28" transform="translate(0 0.402)" clip-path="url(#clip-path)">
    <path id="laravel_logo_icon_168331" d="M39.754,53.775a.985.985,0,0,1-.847-.479L31.452,40.862l-13.943,3.79a.985.985,0,0,1-1.1-.495L.117,13.534a.985.985,0,0,1,.737-1.442l13.833-1.86a.985.985,0,0,1,.979.468l16.7,27.869L51.77,33.292l-6.47-9.14a.985.985,0,0,1,.55-1.53l9.08-2.146a.985.985,0,0,1,1,.341l7.857,9.8a.985.985,0,0,1-.512,1.568l-8.253,2.25,7.224,10.18a.985.985,0,0,1-.479,1.5L40.069,53.7a.985.985,0,0,1-.314.061ZM33.426,40.323,40.183,51.59,59.874,44.7,53,35ZM2.52,13.842l15.246,28.7,12.655-3.433L14.306,12.275ZM47.768,24.207l6.052,8.534,7.527-2.047L54.8,22.54Z" transform="translate(0 3.599)" fill="#ef533f"/>
  </g>
</svg>
