<svg xmlns="http://www.w3.org/2000/svg" xmlns:xlink="http://www.w3.org/1999/xlink" width="64" height="72" viewBox="0 0 64 72">
  <defs>
    <clipPath id="clip-path">
      <rect id="長方形_88" data-name="長方形 88" width="64" height="72" transform="translate(0 -0.402)" fill="#fff" stroke="#707070" stroke-width="1"/>
    </clipPath>
  </defs>
  <g id="マスクグループ_11" data-name="マスクグループ 11" transform="translate(0 0.402)" clip-path="url(#clip-path)">
    <g id="Layer_x0020_1" transform="translate(0 4.196)">
      <rect id="長方形_93" data-name="長方形 93" width="64" height="63.607" fill="#87bcf6"/>
      <rect id="長方形_94" data-name="長方形 94" width="53.273" height="52.946" transform="translate(5.364 5.331)" fill="#252653"/>
      <path id="パス_91" data-name="パス 91" d="M51.925,29.676c-4.739-2.39-12.9-1.232-12.9,5,0,4.644,3.213,6.472,7.142,8.006,5.583,2.179.157,6.3-6.658,2.039,0,0-.244-.12-.364,0a.445.445,0,0,0-.12.364v4.475a13.315,13.315,0,0,0,6.91,1.811c8.871-.091,10.148-8.585,5.43-11.852A29.246,29.246,0,0,0,47.5,37.463c-3.751-1.431-3.432-3.465-2.241-4.491,1.315-1.137,4.963.583,6.5,1.543.93.575,1.083-.141,1.079-.769l-.012-2.973C52.818,30.065,52.574,30.007,51.925,29.676Z" transform="translate(-4.475 -4.669)" fill="#87bcf6" fill-rule="evenodd"/>
      <path id="パス_92" data-name="パス 92" d="M24.531,37.1V26.21a.538.538,0,0,1,.24-.24c4.615-.236,7.241.666,7.477,5.6.269,5.657-4.475,5.777-7.717,5.777ZM18.965,21.976V51.259h5.566V41.822c6.84.488,13.01-1.964,13.01-9.871,0-3.188-.993-6.4-3.346-8.337C30.908,20.9,23.225,21.5,18.965,21.976Z" transform="translate(-4.475 -4.669)" fill="#87bcf6" fill-rule="evenodd"/>
    </g>
  </g>
</svg>
