<svg xmlns="http://www.w3.org/2000/svg" xmlns:xlink="http://www.w3.org/1999/xlink" width="64" height="72" viewBox="0 0 64 72">
  <defs>
    <clipPath id="clip-path">
      <rect id="長方形_115" data-name="長方形 115" width="64" height="72" transform="translate(0 -0.402)" fill="#fff" stroke="#707070" stroke-width="1"/>
    </clipPath>
    <radialGradient id="radial-gradient" cx="0.3" cy="0.176" r="1.248" gradientTransform="translate(-0.307) scale(0.526 1)" gradientUnits="objectBoundingBox">
      <stop offset="0" stop-color="#fff"/>
      <stop offset="0.5" stop-color="#4c6b96"/>
      <stop offset="1" stop-color="#231f20"/>
    </radialGradient>
  </defs>
  <g id="マスクグループ_29" data-name="マスクグループ 29" transform="translate(0 0.402)" clip-path="url(#clip-path)">
    <g id="file_type_php_icon_130266" transform="translate(-4.571 -0.974)">
      <ellipse id="楕円形_3" data-name="楕円形 3" cx="32" cy="16.834" rx="32" ry="16.834" transform="translate(4.571 19.737)" fill="url(#radial-gradient)"/>
      <ellipse id="楕円形_4" data-name="楕円形 4" cx="30.75" cy="15.584" rx="30.75" ry="15.584" transform="translate(5.822 20.987)" fill="#6280b6"/>
      <path id="パス_143" data-name="パス 143" d="M42.8,41.6l1.525-7.849a4,4,0,0,0-.85-3.929,6.7,6.7,0,0,0-4.571-1.2H36.267l.757-3.886a.5.5,0,0,0-.491-.594H32.875a.5.5,0,0,0-.491.4L30.763,32.88a4.688,4.688,0,0,0-1.09-2.409,6.361,6.361,0,0,0-5.029-1.845H17.6a.5.5,0,0,0-.491.4L13.831,45.9a.5.5,0,0,0,.491.594h3.664a.5.5,0,0,0,.491-.4l.793-4.08h2.743a11.81,11.81,0,0,0,3.584-.457,7.013,7.013,0,0,0,2.629-1.575,8.087,8.087,0,0,0,1.554-1.929l-.656,3.371a.5.5,0,0,0,.491.594h3.657a.5.5,0,0,0,.491-.4l1.8-9.259h2.5c1.065,0,1.371.213,1.463.3s.229.377.057,1.3l-1.451,7.463a.5.5,0,0,0,.491.594h3.7A.5.5,0,0,0,42.8,41.6ZM25.9,35.122a4,4,0,0,1-1.282,2.5,4.962,4.962,0,0,1-3.006.734H19.982l1.177-6.059h2.105c1.547,0,2.169.331,2.421.608a2.7,2.7,0,0,1,.213,2.222Z" fill="#fff"/>
      <path id="パス_144" data-name="パス 144" d="M58.391,30.473a6.361,6.361,0,0,0-5.029-1.845H46.3a.5.5,0,0,0-.491.4L42.528,45.9a.5.5,0,0,0,.491.594h3.675a.5.5,0,0,0,.491-.4l.793-4.08h2.743a11.81,11.81,0,0,0,3.584-.457,7.013,7.013,0,0,0,2.629-1.575,7.829,7.829,0,0,0,2.459-4.4,5.742,5.742,0,0,0-1-5.1Zm-3.81,4.649a4,4,0,0,1-1.282,2.5,4.962,4.962,0,0,1-3.013.731H48.663L49.84,32.29h2.105c1.547,0,2.169.331,2.421.608a2.7,2.7,0,0,1,.215,2.224Z" fill="#fff"/>
      <path id="パス_145" data-name="パス 145" d="M23.264,31.79a3.76,3.76,0,0,1,2.791.773,3.063,3.063,0,0,1,.331,2.654,4.446,4.446,0,0,1-1.467,2.8,5.4,5.4,0,0,1-3.31.846H19.374L20.745,31.8ZM14.311,46h3.675l.871-4.485H22a11.271,11.271,0,0,0,3.429-.437,6.491,6.491,0,0,0,2.446-1.467,7.33,7.33,0,0,0,2.309-4.133,5.257,5.257,0,0,0-.88-4.672,5.87,5.87,0,0,0-4.651-1.673H17.6Z" fill="#000004"/>
      <path id="パス_146" data-name="パス 146" d="M32.885,24.645h3.657l-.885,4.485h3.248a6.325,6.325,0,0,1,4.229,1.07,3.538,3.538,0,0,1,.7,3.465l-1.525,7.849h-3.7l1.451-7.463a2.025,2.025,0,0,0-.183-1.737,2.562,2.562,0,0,0-1.829-.457H35.131L33.253,41.52H29.6Z" fill="#000004"/>
      <path id="パス_147" data-name="パス 147" d="M51.947,31.79a3.76,3.76,0,0,1,2.791.773,3.063,3.063,0,0,1,.331,2.654,4.446,4.446,0,0,1-1.467,2.8,5.4,5.4,0,0,1-3.317.846H48.05L49.422,31.8ZM42.994,46H46.67l.871-4.485h3.147a11.271,11.271,0,0,0,3.429-.437,6.491,6.491,0,0,0,2.446-1.467,7.33,7.33,0,0,0,2.309-4.133,5.257,5.257,0,0,0-.88-4.672,5.87,5.87,0,0,0-4.651-1.673H46.272Z" fill="#000004"/>
    </g>
  </g>
</svg>
