<svg xmlns="http://www.w3.org/2000/svg" xmlns:xlink="http://www.w3.org/1999/xlink" width="64" height="72" viewBox="0 0 64 72">
  <defs>
    <clipPath id="clip-path">
      <rect id="長方形_88" data-name="長方形 88" width="64" height="72" transform="translate(0 0.171)" fill="#fff" stroke="#707070" stroke-width="1"/>
    </clipPath>
  </defs>
  <g id="マスクグループ_6" data-name="マスクグループ 6" transform="translate(0 -0.171)" clip-path="url(#clip-path)">
    <path id="scss-icon" d="M41.623,48.132c-1.238.569-2.595,1.31-5.31,2.8-1.03.579-2.105,1.158-3.107,1.7-.069-.069-.142-.157-.211-.229-5.372-5.74-15.307-9.794-14.885-17.5.157-2.808,1.122-10.18,19.08-19.132,14.779-7.284,26.54-5.266,28.57-.79,2.919,6.381-6.3,18.254-21.567,19.976a11.5,11.5,0,0,1-9.655-2.44c-.808-.878-.929-.929-1.228-.754-.492.257-.175,1.053,0,1.508a9.009,9.009,0,0,0,5.511,4.334,29.343,29.343,0,0,0,17.9-1.773C65.977,32.254,73.2,22.3,71.084,13.956,68.96,5.5,54.917,2.705,41.631,7.426A66.922,66.922,0,0,0,19.006,20.416c-7.32,6.847-8.478,12.8-8,15.289,1.7,8.847,13.9,14.6,18.79,18.869-.257.142-.474.257-.667.368-2.44,1.212-11.742,6.074-14.061,11.217-2.633,5.827.422,10,2.44,10.566a15.011,15.011,0,0,0,16.167-6.548,16.216,16.216,0,0,0,1.439-14.929,12.947,12.947,0,0,1,1.843-1.228c1.246-.736,2.432-1.462,3.485-2.023h0a26.962,26.962,0,0,1,11.518-2.546c8.355.983,10,6.2,9.688,8.391A5.552,5.552,0,0,1,58.992,61.6c-.579.368-.772.492-.721.754.069.386.35.368.842.3a6.525,6.525,0,0,0,4.546-5.809c.257-5.148-4.651-10.8-13.341-10.744a19.956,19.956,0,0,0-7.583,1.511q-.579.239-1.125.515ZM29.2,68.309c-2.775,3.019-6.636,4.159-8.3,3.194-1.8-1.03-1.089-5.5,2.317-8.69a44.22,44.22,0,0,1,6.512-4.862c.4-.257,1-.6,1.719-1.03.124-.069.193-.106.193-.106l.422-.257a11.989,11.989,0,0,1-2.86,11.75Z" transform="translate(-9.517 -5.14)" fill="#cd6799"/>
  </g>
</svg>
