<svg xmlns="http://www.w3.org/2000/svg" xmlns:xlink="http://www.w3.org/1999/xlink" width="64" height="72" viewBox="0 0 64 72">
  <defs>
    <clipPath id="clip-path">
      <rect id="長方形_88" data-name="長方形 88" width="64" height="72" transform="translate(0 -0.402)" fill="#fff" stroke="#707070" stroke-width="1"/>
    </clipPath>
  </defs>
  <g id="マスクグループ_13" data-name="マスクグループ 13" transform="translate(0 0.402)" clip-path="url(#clip-path)">
    <g id="slack-icon" transform="translate(0 4)">
      <path id="パス_95" data-name="パス 95" d="M0,32A32,32,0,1,1,32,64,32,32,0,0,1,0,32Z" fill="#fff"/>
      <path id="パス_96" data-name="パス 96" d="M22.047,36.529a3.606,3.606,0,1,1-3.607-3.607h3.607Z" fill="#e01e5a"/>
      <path id="パス_97" data-name="パス 97" d="M23.865,36.529a3.606,3.606,0,1,1,7.213,0v9.03a3.606,3.606,0,1,1-7.213,0Z" fill="#e01e5a"/>
      <path id="パス_98" data-name="パス 98" d="M27.471,22.047a3.606,3.606,0,1,1,3.607-3.606v3.606Z" fill="#36c5f0"/>
      <path id="パス_99" data-name="パス 99" d="M27.471,23.865a3.606,3.606,0,1,1,0,7.213h-9.03a3.606,3.606,0,0,1,0-7.213Z" fill="#36c5f0"/>
      <path id="パス_100" data-name="パス 100" d="M41.953,27.471a3.606,3.606,0,1,1,3.606,3.606H41.953Z" fill="#2eb67d"/>
      <path id="パス_101" data-name="パス 101" d="M40.135,27.471a3.606,3.606,0,0,1-7.213,0v-9.03a3.606,3.606,0,0,1,7.213,0Z" fill="#2eb67d"/>
      <path id="パス_102" data-name="パス 102" d="M36.529,41.953a3.606,3.606,0,1,1-3.607,3.606V41.953Z" fill="#ecb22e"/>
      <path id="パス_103" data-name="パス 103" d="M36.529,40.136a3.606,3.606,0,1,1,0-7.213h9.03a3.606,3.606,0,1,1,0,7.213Z" fill="#ecb22e"/>
    </g>
  </g>
</svg>
