<svg xmlns="http://www.w3.org/2000/svg" xmlns:xlink="http://www.w3.org/1999/xlink" width="64" height="72" viewBox="0 0 64 72">
  <defs>
    <clipPath id="clip-path">
      <rect id="長方形_88" data-name="長方形 88" width="64" height="72" transform="translate(0 -0.116)" fill="#fff" stroke="#707070" stroke-width="1"/>
    </clipPath>
  </defs>
  <g id="マスクグループ_7" data-name="マスクグループ 7" transform="translate(0 0.116)" clip-path="url(#clip-path)">
    <g id="wp-icon" transform="translate(-0.333 3.697)">
      <path id="パス_83" data-name="パス 83" d="M32.823,65.4A32.123,32.123,0,0,1,.837,32.862a32,32,0,1,1,64,.554A32.122,32.122,0,0,1,32.823,65.4Zm-.026-2.55a29.775,29.775,0,0,0,.335-59.543A29.6,29.6,0,0,0,3.374,32.8,29.54,29.54,0,0,0,32.8,62.852Z" transform="translate(-0.837 -0.796)" fill="#218dbe"/>
      <path id="パス_84" data-name="パス 84" d="M46.061,43.382c.386-1.2.8-2.4,1.133-3.606.631-2.266,1.391-4.494,2.138-6.735a13.24,13.24,0,0,0-1.764-12.349,9.011,9.011,0,0,1-1.558-3.425A4.222,4.222,0,0,1,48.43,12.5a4.441,4.441,0,0,1,5.254,1.558,8.282,8.282,0,0,1,1.288,4.314,26.849,26.849,0,0,1-2.035,11.357c-1.223,3.193-2.253,6.477-3.374,9.709-1.107,3.193-2.2,6.4-3.309,9.593-.373,1.095-.773,2.176-1.133,3.271a.991.991,0,0,1-1.056.76,1.546,1.546,0,0,1-1.79-1.159c-1.095-2.7-2.022-5.46-3.026-8.19-1.416-3.85-2.807-7.726-4.211-11.589-.052-.155-.077-.373-.3-.348s-.206.245-.258.4c-.979,2.833-1.944,5.666-2.923,8.5-1.378,3.979-2.781,7.971-4.159,11.95-.1.283-.245.438-.554.412H26.72c-1.687.052-1.661.052-2.228-1.519q-3.148-8.673-6.3-17.332-2.55-7.011-5.086-14.01c-.373-.992-.361-.992-1.442-.992-.322,0-.644,0-.966-.026a1.284,1.284,0,0,1-1.275-1.275,1.229,1.229,0,0,1,1.339-1.172c1.326-.026,2.653-.077,3.992-.064,2.382,0,4.764-.039,7.134-.245.193-.013.386-.026.579-.026a.909.909,0,0,1,.232,1.8,20.516,20.516,0,0,1-2.163.219c-.489.026-.579.142-.412.618,1.816,5.357,3.606,10.714,5.408,16.07q1.255,3.766,2.524,7.559c.1.309.155.837.451.85.373.013.322-.528.425-.824q2.3-6.857,4.584-13.7a1.387,1.387,0,0,0,.013-.94c-1.107-3.013-2.215-6.026-3.284-9.052a.708.708,0,0,0-.785-.567c-.554,0-1.107-.077-1.661-.129-.708-.064-1.159-.489-1.107-1.017.052-.579.5-.914,1.223-.863a73.57,73.57,0,0,0,8.421.219c1.043-.039,2.1-.129,3.142-.193.155-.013.3-.026.451-.026.657-.013,1.043.27,1.107.811a.94.94,0,0,1-.914,1.043,17.135,17.135,0,0,1-1.983.155c-.489,0-.631.09-.464.618.979,2.872,1.932,5.769,2.9,8.653q2.511,7.494,5.009,14.976c.09.258.206.5.309.747A.409.409,0,0,1,46.061,43.382Z" transform="translate(-0.837 -0.796)" fill="#218dbe"/>
    </g>
  </g>
</svg>
