<svg xmlns="http://www.w3.org/2000/svg" xmlns:xlink="http://www.w3.org/1999/xlink" width="64" height="72" viewBox="0 0 64 72">
  <defs>
    <clipPath id="clip-path">
      <rect id="長方形_88" data-name="長方形 88" width="64" height="72" transform="translate(0 -0.402)" fill="#fff" stroke="#707070" stroke-width="1"/>
    </clipPath>
  </defs>
  <g id="マスクグループ_10" data-name="マスクグループ 10" transform="translate(0 0.402)" clip-path="url(#clip-path)">
    <g id="Layer_x0020_1" transform="translate(0.109 4.196)">
      <rect id="長方形_91" data-name="長方形 91" width="64" height="63.607" fill="#ff2bc2"/>
      <rect id="長方形_92" data-name="長方形 92" width="53.273" height="52.946" transform="translate(5.364 5.331)" fill="#2e001e"/>
      <path id="パス_89" data-name="パス 89" d="M16.852,22.2c.211.459.525,1.021.641,1.257.323.645.637,1.245.955,1.882l5.19,10.33c.153.3.438.641.294.968l-7.283,13.9c-.174.343-.558.744.141.744h4.317c.612,0,.62-.323,1.009-1.15l4.942-10.355c.339.3,4.375,9.061,5.351,11.062.17.347.211.442.707.442.7,0,4.541.083,4.909-.074.079-.405-.62-1.522-.827-1.915l-1.919-3.681c-1.518-2.92-3.255-6.464-4.793-9.239-.314-.567-.194-.538.513-1.849.343-.637.629-1.22.972-1.857.314-.591.633-1.2.947-1.815L35.8,25.3a32.746,32.746,0,0,0,1.762-3.536c.07-.252-.347-.236-.645-.236l-3.813,0h-.062c-.418,0-.48.083-.629.385l-3.747,7.994A30.485,30.485,0,0,1,27.31,32.8c-.393-.972-.873-1.911-1.3-2.878l-2.738-5.765c-.248-.471-.438-.951-.674-1.418-.128-.256-.24-.471-.352-.724-.157-.352-.136-.48-.6-.48l-4.371,0C16.624,21.546,16.558,21.566,16.852,22.2Z" transform="translate(-4.475 -4.669)" fill="#ff3bc1" fill-rule="evenodd"/>
      <path id="パス_90" data-name="パス 90" d="M44.026,40.631a8.689,8.689,0,0,1,1.2-5.029,6.471,6.471,0,0,1,.806-1.017,5.65,5.65,0,0,1,5.5-1.232l.008,13.7C47.227,48.289,44.026,45.635,44.026,40.631Zm7.506-11.637-1.753-.033a10.931,10.931,0,0,0-7.7,3.226,11.965,11.965,0,0,0-3.044,7.9c0,3.59.662,6.2,2.6,8.478A9.725,9.725,0,0,0,48.9,51.66a15.867,15.867,0,0,0,4.553-.533,12.569,12.569,0,0,0,3.1-1.22,12,12,0,0,0-.083-1.584c-.058-1.629-.021-3.8-.017-5.467l0-20.781c0-.414.025-.538-.409-.538H51.937c-.571,0-.405.352-.405,1.555Z" transform="translate(-4.475 -4.669)" fill="#fe31c0" fill-rule="evenodd"/>
    </g>
  </g>
</svg>
